# xmcd
#
# Track frame offsets:
#	150
#	16414
#	33078
#	50758
#	65068
#	82143
#	99522
#	114378
#	131131
#	147784
#	165669
#	183732
#	200941
#	220178
#	238039
#	253458
#	270559
#	287770
#	303125
#	317537
#	333744
#
# Disc length: 4767 seconds
#
# Revision: 0
# Processed by: cddbd v1.5.1PL2 Copyright (c) Steve Scherf et al.
# Submitted via: audiograbber 1.80
#
DISCID=48129d15
DTITLE=Juanes - Mi Segra
DYEAR=1900
DGENRE=
TTITLE0=Juanes -  La Camisa Negra
TTITLE1=US5 - Maria
TTITLE2=Tokio Hotel - Durch Den Monsun
TTITLE3=Kelly Clarkson - Since U Been Gone
TTITLE4=Juli  - Warum
TTITLE5=Daniel Powter - Bad Day
TTITLE6=Christina Stürmer - Engel Fliegen Einsam
TTITLE7=Maya Saban&Cosmo Klein - Das Alles Ändert Nichts Daran
TTITLE8=Ich+ich - Dienen
TTITLE9=Marc Terenzi - Love To Be Loved By You
TTITLE10=Doreen - Der Brief(Den Ich Nie Schrieb)
TTITLE11=Yvonne Catterfeld - Als Unser Hass Noch Liebe War
TTITLE12=Bobby Valentino - Slow Down
TTITLE13=Flipsyde  - Someday
TTITLE14=Diane  - DAs Beste
TTITLE15=Nena - Willst Du Mit Mir Gehn
TTITLE16=Lucie Silvas - Breathe In
TTITLE17=Simple Plan - Welcome To My Life
TTITLE18=Kate Hall - God ´s Gift
TTITLE19=Revolverheld - Die Welt Steht Still
TTITLE20=Söhne Mannheims - Zurück Zu Dir
EXTD=
EXTT0=
EXTT1=
EXTT2=
EXTT3=
EXTT4=
EXTT5=
EXTT6=
EXTT7=
EXTT8=
EXTT9=
EXTT10=
EXTT11=
EXTT12=
EXTT13=
EXTT14=
EXTT15=
EXTT16=
EXTT17=
EXTT18=
EXTT19=
EXTT20=
PLAYORDER=
